<svg version="1.1" id="futsalplay-logo" xmlns="http://www.w3.org/2000/svg" viewBox="0 0 1024 544" xml:space="preserve">

  <!-- Ball background: white fill so logo works on any background color -->
  <circle cx="513" cy="238" r="168" fill="#ffffff"/>

  <!-- Outer ring -->
  <path fill="#050B18" stroke="none"
    d="
M341.866943,242.773407
  C339.959595,166.363205 384.609741,99.128410 454.512970,74.243279
  C525.093506,49.117062 604.565002,70.659523 650.877563,133.243195
  C671.799683,161.515945 682.831543,193.279449 684.360962,228.320648
  C688.170471,315.603058 625.993713,391.042023 539.884644,405.034271
  C470.972931,416.232056 401.393463,383.011719 365.899811,322.777618
  C352.399506,299.867096 344.396179,275.271484 342.584991,248.700165
  C342.460693,246.876114 342.128693,245.066238 341.866943,242.773407
M395.094208,133.572342
  C371.550751,160.982605 359.031525,192.917099 357.484650,228.839066
  C356.039246,262.405762 364.573151,293.631134 383.527588,321.505981
  C412.890472,364.687653 454.092316,388.109802 506.035522,391.444427
  C536.873779,393.424194 565.733459,385.326324 592.426086,369.592957
  C649.042419,336.221832 678.869873,270.363770 666.381714,205.910202
  C652.426819,133.886841 590.952148,82.894341 522.237671,79.984138
  C471.558289,77.837761 429.325592,95.162895 395.094208,133.572342
z"/>

  <!-- Panel lines / ball detail skeleton -->
  <path fill="#050B18" stroke="none"
    d="
M372.725403,196.953232
  C383.464844,159.154678 405.274994,130.054047 438.515259,109.966080
  C466.364746,93.135910 496.826111,87.056259 529.151489,90.571671
  C589.376282,97.121162 638.518066,138.609680 653.680420,196.963196
  C675.057739,279.235138 626.635315,356.904663 548.725342,376.474731
  C476.672394,394.573639 404.017120,356.461792 377.493439,288.000061
  C366.010559,258.361115 364.715454,228.078415 372.725403,196.953232
M427.067230,206.697525
  C424.804688,205.837387 423.367859,206.959869 421.880920,208.555115
  C414.339752,216.645767 408.163116,225.686951 402.553436,235.191193
  C400.172394,239.225266 399.856262,243.257095 400.574829,247.660400
  C402.408203,258.894897 406.188568,269.505890 410.189941,280.122192
  C413.964996,290.137970 419.780060,297.293304 430.666931,299.784332
  C435.344177,300.854553 439.741180,303.101898 444.386902,304.369507
  C450.223663,305.962128 456.461578,309.630341 461.691315,301.921387
  C461.853729,308.191284 463.210663,313.481201 466.065948,318.454010
  C470.478943,326.139618 475.628235,333.261932 481.116608,340.203400
  C483.848633,343.658752 487.217957,345.055969 491.320892,345.643738
  C503.090271,347.329834 514.918884,347.221527 526.722961,346.569916
  C534.688904,346.130219 542.474243,345.251160 547.639893,337.396118
  C552.393433,330.167755 557.619629,323.263184 561.798706,315.642365
  C563.409790,312.704468 563.000183,310.585052 561.043762,307.970642
  C554.259521,298.904938 547.677979,289.685608 541.133240,280.444061
  C539.730469,278.463348 537.188660,276.398499 540.928711,273.854034
  C544.317200,271.548798 545.860962,273.171783 547.693970,275.840027
  C554.013184,285.038513 560.584778,294.064453 566.846741,303.300873
  C568.821472,306.213654 571.061096,307.323395 574.405518,306.441254
  C585.209534,303.591644 595.808960,300.171021 605.917114,295.343170
  C608.248413,294.229706 609.994202,292.646942 611.233154,290.307159
  C618.946716,275.740631 623.779114,260.238220 626.498291,244.032532
  C626.780701,242.349396 626.581238,240.755997 625.797363,239.185303
  C620.250977,228.071564 612.999084,218.149841 604.802429,208.871826
  C602.942505,206.766495 600.980164,206.082108 598.177856,207.116684
  C590.840881,209.825516 583.318909,212.052948 576.059998,214.947220
  C570.838867,217.029037 567.742554,214.713806 564.667480,211.282822
  C565.756104,209.480667 567.366211,209.329330 568.727112,208.851562
  C577.211060,205.872879 585.643677,202.706360 594.257568,200.157516
  C598.242004,198.978546 599.988953,196.844345 600.582520,192.980896
  C602.007507,183.706070 602.000488,174.398911 601.504456,165.074280
  C601.352722,162.222824 600.680603,159.614532 598.512878,157.374893
  C587.042725,145.523849 573.929749,135.951706 559.256409,128.462952
  C557.376892,127.503693 555.509277,127.227631 553.467163,127.594376
  C542.783447,129.513107 532.413086,132.464157 522.341248,136.553589
  C518.628662,138.060974 516.963562,140.135849 517.076904,144.376801
  C517.370605,155.365784 517.208130,166.368118 517.138062,177.364532
  C517.126221,179.224762 517.862244,181.425873 515.604126,182.804413
  C510.441803,181.262726 508.908020,177.789795 509.142487,172.566605
  C509.575409,162.922226 509.405212,153.252060 509.597382,143.594864
  C509.662262,140.335281 508.321625,138.505859 505.303955,137.153015
  C494.891418,132.485031 483.969116,129.682037 472.817841,127.582489
  C470.900787,127.221550 469.189667,127.687714 467.515808,128.512527
  C452.425446,135.948441 438.913239,145.522278 427.529877,157.991028
  C426.128906,159.525589 425.517761,161.246582 425.172913,163.325745
  C423.543488,173.150452 424.630981,182.921402 425.450043,192.700485
  C425.766205,196.475098 427.456818,198.911438 431.478424,200.150223
  C440.382446,202.892899 449.128601,206.152115 457.920593,209.253204
  C463.353577,211.169525 463.877533,212.460739 461.529572,218.706375
  C450.298492,214.796356 439.042145,210.877533 427.067230,206.697525
M446.843842,118.365944
  C429.105743,128.476959 414.534576,141.947205 402.254486,159.899063
  C407.404388,158.515839 411.160492,157.294891 415.007751,156.535507
  C418.587952,155.828842 421.408051,154.270294 423.918335,151.580429
  C434.946594,139.763245 447.938171,130.520599 462.326782,123.265488
  C468.643646,120.080353 469.566711,113.642281 472.413300,108.108208
  C463.331268,109.873169 455.329865,113.743675 446.843842,118.365944
M533.996643,352.929443
  C520.411377,354.716583 506.545990,355.857574 493.302734,352.741547
  C481.875488,350.052795 474.761841,358.004639 465.390747,360.069031
  C497.252899,371.969727 528.953247,372.075317 561.989136,360.283875
  C556.491760,358.026886 552.019653,356.687500 548.068054,354.435059
  C543.730530,351.962708 539.512390,351.264221 533.996643,352.929443
M381.970978,262.702026
  C386.155914,282.344330 394.234741,300.106934 407.456360,317.034332
  C407.991669,311.640381 407.743439,307.650024 408.882141,304.105194
  C410.862610,297.939850 408.819489,293.084961 406.108978,287.709198
  C400.409912,276.405975 395.610321,264.502716 394.706268,251.822189
  C393.921692,240.816681 385.191833,236.040482 379.550903,227.233566
  C378.511902,239.930420 379.434875,250.954880 381.970978,262.702026
M646.939941,230.761276
  C646.722107,230.056198 647.126587,229.053589 645.812195,228.715073
  C643.127747,232.014496 640.744385,235.738220 637.582642,238.602982
  C634.519470,241.378448 633.032837,244.454193 632.521667,248.405594
  C630.754578,262.064941 627.260376,275.497284 620.324280,287.227966
  C614.398560,297.249908 619.333862,306.334076 619.270264,315.893646
  C638.603088,290.995819 648.166687,263.000732 646.939941,230.761276
M563.088806,110.458984
  C559.867065,109.373680 556.645325,108.288368 553.423584,107.203064
  C557.357422,114.176788 559.295349,121.652672 567.486145,125.327225
  C579.511230,130.721939 590.365479,138.648743 599.051331,148.546188
  C605.666382,156.083954 614.246338,156.727478 623.787781,159.663254
  C607.975586,136.788193 588.292236,120.830170 563.088806,110.458984
z"/>

  <!-- Play triangle — action blue -->
  <path fill="#3D82F6" stroke="none"
    d="
M507.914246,281.983368
  C496.484772,288.756561 485.363403,295.334900 473.299988,302.470459
  C473.299988,258.058624 473.299988,214.810410 473.299988,169.959534
  C510.577606,191.995361 547.149719,213.614151 585.170044,236.088989
  C558.658997,251.834000 533.440674,266.811249 507.914246,281.983368
z"/>

  <!-- Panel fill: top-right pentagon -->
  <path fill="#050B18" stroke="none"
    d="
M574.468750,141.483810
  C581.793457,146.488647 588.214111,152.023697 594.397827,157.851608
  C596.539429,159.870026 598.089539,162.174164 598.126587,165.202606
  C598.236145,174.178421 598.762451,183.154388 597.433533,192.112854
  C597.035583,194.795959 595.950806,196.284271 593.440247,197.133881
  C583.518188,200.491730 573.608887,203.889923 563.739197,207.398193
  C560.496948,208.550690 557.680054,208.232468 554.735596,206.443619
  C544.925903,200.483978 535.101440,194.539948 525.122742,188.871521
  C521.581909,186.860138 520.461914,184.353088 520.554504,180.395721
  C520.819153,169.084549 520.771851,157.763519 520.670532,146.447952
  C520.640198,143.063034 521.672363,140.846008 524.890381,139.374527
  C534.203613,135.115891 544.033325,132.715546 554.043884,130.985092
  C557.781311,130.339005 560.650391,132.922714 563.637329,134.602844
  C567.255798,136.638153 570.669250,139.037735 574.468750,141.483810
z"/>

  <!-- Panel fill: left pentagon -->
  <path fill="#050B18" stroke="none"
    d="
M407.597168,233.710083
  C412.196320,226.539215 416.903168,219.904999 421.975159,213.516968
  C424.129700,210.803406 426.328735,209.877731 429.714386,211.134552
  C439.216797,214.662079 448.778381,218.034698 458.364044,221.330505
  C461.099792,222.271118 462.378143,223.753510 462.380951,226.749466
  C462.400787,248.040176 462.631439,269.331055 462.578674,290.621338
  C462.558899,298.614349 455.674744,303.852386 448.188171,301.981110
  C439.446777,299.796204 431.123230,296.449066 422.923523,292.766571
  C420.561676,291.705841 418.860016,290.099030 417.632660,287.745728
  C410.724792,274.500671 406.280579,260.481018 403.962036,245.743469
  C403.251190,241.225128 405.536285,237.722137 407.597168,233.710083
z"/>

  <!-- Panel fill: bottom pentagon -->
  <path fill="#050B18" stroke="none"
    d="
M550.569824,318.243866
  C552.447266,317.787506 553.953857,316.526886 556.011475,318.361084
  C551.755798,326.678558 546.706238,334.532959 539.562683,340.849945
  C537.482300,342.689636 534.493103,342.204254 531.881714,342.567932
  C517.956238,344.507568 504.052521,343.887817 490.178497,342.032135
  C488.748291,341.840881 487.024170,341.383301 486.078949,340.419281
  C478.385101,332.572205 472.284607,323.620392 467.581085,313.765747
  C469.454956,312.364471 470.932495,312.851257 472.369873,313.165405
  C498.567749,318.891327 523.144409,313.718079 546.775330,302.134247
  C548.218262,301.426941 549.657837,300.144775 551.332458,301.572052
  C552.404846,302.486023 553.030762,303.697327 552.472778,305.118652
  C551.711365,307.058167 549.916626,306.890900 548.258301,307.053101
  C546.778503,307.197845 545.234375,307.310211 543.864990,307.825806
  C541.108459,308.863739 540.193787,311.082397 542.143127,313.302124
  C544.248474,315.699585 546.398926,318.509766 550.569824,318.243866
z"/>

  <!-- Panel fill: right pentagon -->
  <path fill="#050B18" stroke="none"
    d="
M586.994507,266.009125
  C597.054932,251.415329 603.461609,235.677841 606.200256,218.786285
  C608.460510,218.089218 609.212952,219.451385 609.966492,220.408401
  C614.719421,226.444809 618.839722,232.893875 622.217346,239.803436
  C623.047363,241.501328 623.158142,243.263504 622.855774,245.154221
  C620.469421,260.076172 615.792175,274.239380 609.015137,287.734070
  C607.919861,289.914856 606.434753,291.578857 604.220154,292.606567
  C595.740356,296.541748 586.971252,299.650909 577.968140,302.177429
  C573.855408,303.331573 571.154297,302.774841 568.293152,299.001465
  C563.020691,292.047821 562.552551,292.210510 568.862549,286.410919
  C575.518555,280.293335 581.471313,273.591309 586.994507,266.009125
z"/>

  <!-- Edge arc: bottom -->
  <path fill="#050B18" stroke="none"
    d="
M507.283325,366.066895
  C496.481720,365.112946 486.104950,364.417999 475.345337,359.967529
  C480.362274,357.059784 483.929138,354.435028 489.359650,355.325165
  C505.226105,357.925934 521.224121,357.828247 537.086121,355.371826
  C542.593689,354.518951 546.086121,357.192261 550.127563,360.001495
  C536.398621,365.333069 522.196167,366.527985 507.283325,366.066895
z"/>

  <!-- Edge arc: left -->
  <path fill="#050B18" stroke="none"
    d="
M394.535126,266.463104
  C397.617584,275.492950 400.339630,284.260681 404.839020,292.260223
  C407.439667,296.883972 406.687439,301.090485 404.675812,305.540131
  C393.885101,298.064331 379.316223,253.130890 383.506775,238.563736
  C387.058594,240.946304 389.899719,243.258224 390.493683,248.079391
  C391.241333,254.148254 393.060364,260.085144 394.535126,266.463104
z"/>

  <!-- Edge arc: right -->
  <path fill="#050B18" stroke="none"
    d="
M622.857544,289.956116
  C629.204041,276.289429 633.992004,262.538055 635.874329,247.892029
  C636.408875,243.732590 638.617676,240.942734 642.544861,239.461884
  C647.767029,249.565735 633.184326,296.773682 622.096985,305.569641
  C618.886353,300.277405 619.471497,295.255524 622.857544,289.956116
z"/>

  <!-- Edge arc: top-right -->
  <path fill="#050B18" stroke="none"
    d="
M583.436523,124.466385
  C595.155640,132.086060 605.595459,140.540955 614.160950,152.207260
  C609.963989,153.306183 607.606689,152.150146 605.534973,150.025665
  C593.697327,137.886429 580.400940,127.721306 565.188721,120.130295
  C562.895203,118.985794 560.935974,117.509125 561.782715,113.775047
  C569.770813,115.778053 576.215942,120.531654 583.436523,124.466385
z"/>

</svg>
